<svg id="Calque_1" data-name="Calque 1" xmlns="http://www.w3.org/2000/svg" viewBox="0 0 400 400"><defs><style>.cls-1{fill:#ff8976;}.cls-2{fill:#f63132;}</style></defs><title>icons</title><path class="cls-1" d="M322.63,250.67a9.81,9.81,0,0,0,13.88-13.88l-17.23-17.37a9.77,9.77,0,0,0-6.94-2.87h0a9.83,9.83,0,0,0-6.94,16.78Z"/><path class="cls-1" d="M355.25,176.12a9.83,9.83,0,1,0,0-19.66H330.76a9.83,9.83,0,1,0,0,19.66Z"/><path class="cls-1" d="M305.39,99.18A9.82,9.82,0,0,0,312.32,116h0a9.87,9.87,0,0,0,7-2.89l17.3-17.3a9.85,9.85,0,0,0-7-16.8h0a9.79,9.79,0,0,0-7,2.91Z"/><path class="cls-1" d="M75.17,253.57h0a9.79,9.79,0,0,0,7-2.9l17.22-17.33a9.83,9.83,0,1,0-13.87-13.93h0L68.18,236.74a9.87,9.87,0,0,0,7,16.83Z"/><path class="cls-1" d="M82.16,81.89a9.82,9.82,0,0,0-13.88,13.9l17.3,17.29A9.72,9.72,0,0,0,92.44,116h0A9.82,9.82,0,0,0,99.4,99.19Z"/><path class="cls-1" d="M39.67,166.29a9.84,9.84,0,0,0,9.83,9.83H74a9.81,9.81,0,0,0,9.78-9.84h0A9.83,9.83,0,0,0,74,156.46H49.5A9.84,9.84,0,0,0,39.67,166.29Z"/><path class="cls-2" d="M156.28,160.74a9.83,9.83,0,1,0,19.66,0A22.79,22.79,0,0,1,198.65,138a9.84,9.84,0,0,0,9.82-9.9v-.05a9.83,9.83,0,0,0-9.82-9.82,42.4,42.4,0,0,0-42.38,42.47Z"/><path class="cls-2" d="M293.58,166.28a90.12,90.12,0,0,0-28.43-65.41h0a88.94,88.94,0,0,0-60.81-24.08q-3.25,0-6.5.24A89.43,89.43,0,0,0,152.6,239.27a9.41,9.41,0,0,1,4.06,7.51v33.85a22.32,22.32,0,0,0,19.12,22.18l2.4.36v12.22a8.76,8.76,0,0,0,8.66,8.74h34.6a8.75,8.75,0,0,0,8.74-8.74V303.19l2.4-.36a22.31,22.31,0,0,0,19.12-22.17V246.88a9.34,9.34,0,0,1,4.07-7.56A89.77,89.77,0,0,0,293.58,166.28Zm-49,57h0a29,29,0,0,0-12.31,23.59v12.26h-56V246.88a29.1,29.1,0,0,0-12.31-23.6,69.37,69.37,0,0,1-29.15-64.34,70.44,70.44,0,0,1,64.39-62.56h5.06a69.81,69.81,0,0,1,69.69,67.09h.05l0,2.82A70.09,70.09,0,0,1,244.56,223.3Z"/></svg>