<svg id="Calque_1" data-name="Calque 1" xmlns="http://www.w3.org/2000/svg" viewBox="0 0 400 400"><defs><style>.cls-1{fill:#f63132;}.cls-2{fill:#ff8976;}</style></defs><title>icons</title><path class="cls-1" d="M90.08,242.6a108.77,108.77,0,0,1-6.75-60.5c0,.1.05.22.06.32,1.54,16.26,8.86,21,18.14,27,2.45,1.59,5.12,3.3,8,5.42,8.19,6.09,7.93,12.2,7.57,20.67-.09,2-.13,4-.13,6.11,15-1,31.89-2.9,50.47-5.82-4.87-1-9.81-2.09-12.79-5-.89-.87-1.76-1.75-2.63-2.64-3.9-4-7.93-8.1-14-10.15-8.33-2.82-14.44-15.55-16.13-23.69-1.52-7.32,1.95-11.27,6.34-16.29a48.54,48.54,0,0,0,6.69-9c1.14-2.1,2.71-3.31,5-4.9,2.7-1.89,6.57-2.61,10.67-3.37,5.2-1,10.57-2,14.16-5.62a10.21,10.21,0,0,0,3.26-7.76c-.26-6.43-6.78-12-12-16.52-1.41-1.22-2.69-2.31-3.63-3.26-2.44-2.48-3-4.14-2.7-4.81.46-1.1,3.4-2.27,7.93-2.27,4.94,0,10,1.35,12.36,3.3,3.29,2.73,6.17,4.06,8.81,4.06,5.37,0,7.93-5,10.41-9.87.81-1.58,1.64-3.21,2.59-4.69a44.43,44.43,0,0,1,3.46-4.55c4.23-5.15,9.51-11.56,1-20-.31-.31-.77-.68-1.14-1a111.66,111.66,0,0,1,59,17.36,3.67,3.67,0,0,1-2.15.48,32.75,32.75,0,0,1-7.18-1.33A30.4,30.4,0,0,0,237,103h-.11c-3.8.23-6.65,1.46-8.46,3.64-3.19,3.8-2.51,9.4-1.87,14.8.5,4.17,1,8.48-.51,10.71A38.9,38.9,0,0,0,223,138a29.6,29.6,0,0,1-2.94,5.5,15.94,15.94,0,0,1-2.46,2.3c-2.06,1.68-4.36,3.59-5,6.56-.73,3.5.34,6.26,1.2,8.5,1,2.58,1.67,4.28.2,7a19.07,19.07,0,0,1-4.28,4.8c-2.65,2.41-5.66,5.13-6.58,9.82-1.6,8.19,0,20.34,6,27.72a15.62,15.62,0,0,0,12.43,6.06c2,0,3.95-.19,5.87-.35s3.71-.33,5.51-.33c4.68,0,7.63,1.37,10,4.44,17.5-4.62,34.06-9.72,49.3-15.15a14.31,14.31,0,0,1,2.07-6.82c.91-1.42,3.68-5.75,6.46-5.75a3.93,3.93,0,0,1,2,.59,14.19,14.19,0,0,1,3.88,4c0,.86.09,1.71.13,2.56q6.91-2.73,13.33-5.53C316.67,127.26,261.63,74.1,194.23,74.1A125.8,125.8,0,0,0,75.45,242.3C80,242.51,84.88,242.62,90.08,242.6Z"/><path class="cls-1" d="M305.35,217.09c-8.2,54.06-54.83,95.66-111.12,95.66a113.41,113.41,0,0,1-23.43-2.48l0-.1a49.3,49.3,0,0,0-4.26-6.38c-3.5-4.67-5.8-7.73-3.26-14.09,1.23-3.08,4.95-7.31,8.88-11.78,7.68-8.75,16.9-19.29,14.55-29.19-20.66,3.62-42.79,6.57-64.22,8.22,1.17,1.31,2.39,2.57,3.64,3.79l1.73,1.7c4.95,5,6.5,8.33,8.39,15.17,1.69,6.14,4.22,11.1,6.89,16.36l2.15,4.34a30,30,0,0,0,2.24,4.13A113.41,113.41,0,0,1,98,258.22c-3.27.08-6.57.19-9.75.19-2,0-3.91,0-5.85-.06a126.19,126.19,0,0,0,111.85,68c65.81,0,119.91-50.65,125.58-115Q312.83,214.29,305.35,217.09Z"/><path class="cls-1" d="M241.59,257.79c.11,7.15.23,17.94,8.83,17.94,2.43,0,5.24-1,8.61-3,4.86-2.86,6.56-7.69,8.05-11.94,1-2.77,1.89-5.38,3.55-7.42l1.94-2.4c4.78-5.89,7.21-8.85,9.84-18.06a38.39,38.39,0,0,1,4.12-8.59l.44-.79c-13.41,4.47-27.61,8.7-42.47,12.56-.25.88-.51,1.77-.78,2.68-1.35,4.5-2.77,9.16-2.3,14.12C241.54,254.33,241.56,256,241.59,257.79Z"/><path class="cls-2" d="M387.58,168c-2.1-9.87-11.55-17-28-21.25,3.47-5.77-3.24-14.81-10.77-10.78l-15,8c-4.54,2.43-5,8.81-1.59,12.31l12.48,12.91c5.55,5.75,13.5,0,13.18-6.23,9.76,2.87,13.5,6.31,13.95,8.39,2.64,12.43-51.4,48.15-164.12,72.08C160.38,253.46,115,258.5,80,257.46c-38.73-1.1-50.61-9.12-51.48-13.22-1-4.89,9.17-17.14,40.2-32.25-.37-3.87-.6-7.78-.6-11.75,0-2,.21-3.93.3-5.9-40.45,18.48-59.21,36.39-55.63,53.24,3.41,16.06,25.87,24.79,66.76,25.94q4.59.14,9.39.13c34.77,0,77.71-5.09,122.18-14.53C286.41,243.14,395.59,205.66,387.58,168Z"/></svg>