<svg id="Calque_1" data-name="Calque 1" xmlns="http://www.w3.org/2000/svg" xmlns:xlink="http://www.w3.org/1999/xlink" viewBox="0 0 500 500"><defs><style>.cls-1{fill:#ffc8c0;}.cls-2{fill:url(#Dégradé_sans_nom_61);}.cls-3{fill:url(#Dégradé_sans_nom_61-2);}.cls-4{fill:url(#Dégradé_sans_nom_61-3);}</style><linearGradient id="Dégradé_sans_nom_61" x1="278.1" y1="95.6" x2="150.41" y2="328.77" gradientUnits="userSpaceOnUse"><stop offset="0" stop-color="#ff9485"/><stop offset="1" stop-color="#ff5162"/></linearGradient><linearGradient id="Dégradé_sans_nom_61-2" x1="281.41" y1="97.41" x2="153.72" y2="330.58" xlink:href="#Dégradé_sans_nom_61"/><linearGradient id="Dégradé_sans_nom_61-3" x1="233.1" y1="70.96" x2="105.41" y2="304.13" xlink:href="#Dégradé_sans_nom_61"/></defs><title>v2_icons</title><path class="cls-1" d="M432.26,321.4C417.62,334.46,360.37,341,309,321.15c-1.51-.58-2-23.17,2.75-25.24,1.09-.48,2.35-.27,3.51-.41,72-8.8,105.66-31.57,114.39-27.91C435.48,270,439.5,314.94,432.26,321.4Z"/><path class="cls-1" d="M383.5,421.8c-10.18,9.49-53.39-11.6-84.9-51.38-.93-1.17,9.28-19.31,14-18.76a11.27,11.27,0,0,1,3,1.32c61.34,26.7,74.16,16.27,80.11,22.66C405.75,386.47,385.25,420.17,383.5,421.8Z"/><path class="cls-2" d="M211.66,141.78a5.37,5.37,0,0,0-2.38,10.47,60.29,60.29,0,0,1,46.06,48.31,5.37,5.37,0,0,0,5.28,4.43,5.45,5.45,0,0,0,.95-.08,5.37,5.37,0,0,0,4.35-6.23A71,71,0,0,0,211.66,141.78Z"/><path class="cls-3" d="M309.38,188.94a114.58,114.58,0,0,0-50-75.61A113.3,113.3,0,0,0,169.8,98.09c-55,13.42-92.17,66-86.34,122.37a114.46,114.46,0,0,0,58.16,88.24c14.17,7.88,23.84,21.05,26.53,36.13l7.9,44.39A24.36,24.36,0,0,0,200,409.29a24,24,0,0,0,4.27-.38l54.95-9.78a24.35,24.35,0,0,0,19.68-28.21l-7.45-41.87c-2.9-16.34,1.9-33.47,13.19-47A113.88,113.88,0,0,0,309.38,188.94Zm-60,136a75.3,75.3,0,0,0,1,7.84l.39,2.19-60.55,10.78-.84-4.71c-.31-1.76-.71-3.49-1.16-5.2ZM193.79,366.3,192,356.35l60.55-10.78,1.77,9.95Zm74.35-98a80.74,80.74,0,0,0-18.77,45.78l-64.7,11.51a74.65,74.65,0,0,0-32.61-35.66,92.64,92.64,0,0,1,22.83-171,94.39,94.39,0,0,1,22.38-2.71,92.66,92.66,0,0,1,70.87,152Z"/><path class="cls-4" d="M167.1,268a66.23,66.23,0,0,1-23.48-98.2,5.37,5.37,0,1,0-8.66-6.36,77,77,0,0,0,27.28,114.14A5.37,5.37,0,1,0,167.1,268Z"/></svg>