<?xml version="1.0" encoding="UTF-8" standalone="no"?>
<svg
   xmlns:dc="http://purl.org/dc/elements/1.1/"
   xmlns:cc="http://creativecommons.org/ns#"
   xmlns:rdf="http://www.w3.org/1999/02/22-rdf-syntax-ns#"
   xmlns:svg="http://www.w3.org/2000/svg"
   xmlns="http://www.w3.org/2000/svg"
   xmlns:sodipodi="http://sodipodi.sourceforge.net/DTD/sodipodi-0.dtd"
   xmlns:inkscape="http://www.inkscape.org/namespaces/inkscape"
   id="Calque_1"
   data-name="Calque 1"
   viewBox="0 0 400 400"
   version="1.1"
   sodipodi:docname="on_debunke.svg"
   inkscape:version="1.0.1 (0767f8302a, 2020-10-17)">
  <style
     id="style840"></style>
  <metadata
     id="metadata15">
    <rdf:RDF>
      <cc:Work
         rdf:about="">
        <dc:format>image/svg+xml</dc:format>
        <dc:type
           rdf:resource="http://purl.org/dc/dcmitype/StillImage" />
      </cc:Work>
    </rdf:RDF>
  </metadata>
  <sodipodi:namedview
     pagecolor="#ffffff"
     bordercolor="#666666"
     borderopacity="1"
     objecttolerance="10"
     gridtolerance="10"
     guidetolerance="10"
     inkscape:pageopacity="0"
     inkscape:pageshadow="2"
     inkscape:window-width="1920"
     inkscape:window-height="1016"
     id="namedview13"
     showgrid="false"
     inkscape:zoom="1.0875"
     inkscape:cx="176.99716"
     inkscape:cy="236.51845"
     inkscape:window-x="0"
     inkscape:window-y="27"
     inkscape:window-maximized="1"
     inkscape:current-layer="Calque_1" />
  <defs
     id="defs4">
    <style
       id="style2">.cls-1{fill:#f63132;}.cls-2{fill:#ff8976;}</style>
  </defs>
  <title
     id="title6">icons</title>
  <g
     id="g844"
     transform="matrix(1.0930098,0,0,1.0930098,-11.985899,-18.623691)">
    <path
       class="cls-1"
       d="M 306.38,285.94 264.44,244 A 12,12 0 0 0 250,242.55 l -5.06,-5.06 c 30.37,-36.88 28.2,-91.84 -6.51,-125.83 a 94.09,94.09 0 1 0 -7.23,139.57 l 5.06,5.06 a 11.13,11.13 0 0 0 1.45,14.46 l 41.94,41.94 a 11.35,11.35 0 0 0 15.91,0 l 10.12,-10.12 c 5.76,-5.06 5.76,-12.29 0.7,-16.63 z M 126.31,224.47 a 64.94,64.94 0 1 1 91.84,0 c -24.58,25.31 -66.53,25.31 -91.84,0 z"
       id="path8" />
    <path
       class="cls-2"
       d="m 127.81,174.89 a 9.83,9.83 0 1 0 19.66,0 22.79,22.79 0 0 1 22.71,-22.71 9.84,9.84 0 0 0 9.82,-9.9 v -0.05 a 9.83,9.83 0 0 0 -9.82,-9.82 42.4,42.4 0 0 0 -42.38,42.47 z"
       id="path10" />
  </g>
</svg>
