<svg id="Calque_1" data-name="Calque 1" xmlns="http://www.w3.org/2000/svg" xmlns:xlink="http://www.w3.org/1999/xlink" viewBox="0 0 500 500"><defs><style>.cls-1{fill:#ffc8c0;}.cls-2{fill:url(#Dégradé_sans_nom_61);}.cls-3{fill:url(#Dégradé_sans_nom_61-2);}.cls-4{fill:url(#Dégradé_sans_nom_61-3);}</style><linearGradient id="Dégradé_sans_nom_61" x1="507.57" y1="94.76" x2="185.71" y2="335.42" gradientUnits="userSpaceOnUse"><stop offset="0" stop-color="#ff9485"/><stop offset="1" stop-color="#ff5162"/></linearGradient><linearGradient id="Dégradé_sans_nom_61-2" x1="507.57" y1="94.76" x2="185.72" y2="335.42" xlink:href="#Dégradé_sans_nom_61"/><linearGradient id="Dégradé_sans_nom_61-3" x1="508.99" y1="96.67" x2="187.14" y2="337.33" xlink:href="#Dégradé_sans_nom_61"/></defs><title>v2_icons</title><path class="cls-1" d="M63.21,250.17c14.79-2.35,54.3,17,79.11,51,.73,1-8.3,15.69-12.18,15.08a9.34,9.34,0,0,1-2.43-1.19c-49.93-24.07-80.93-23.29-85-29.25C40,281.84,55.9,251.33,63.21,250.17Z"/><path class="cls-1" d="M136,205.76c10.46-1.9,29.53,29.47,33.37,68,.11,1.13-13.93,8.58-16.72,6.29a8.61,8.61,0,0,1-1.37-2.08c-28.41-42.46-41-41-42.14-47.6C107.09,219.29,134.17,206.08,136,205.76Z"/><path class="cls-2" d="M330.34,103.27A123.93,123.93,0,0,0,226.76,295.37l-80.81,80.81a23.46,23.46,0,0,0,33.18,33.18L259.5,329a124,124,0,1,0,70.84-225.73Zm0,225.6A101.58,101.58,0,1,1,431.92,227.29,101.7,101.7,0,0,1,330.34,328.87Z"/><path class="cls-3" d="M330.34,139.29a88,88,0,1,0,88,88A88.09,88.09,0,0,0,330.34,139.29Zm0,164.77a76.78,76.78,0,1,1,76.78-76.78A76.86,76.86,0,0,1,330.34,304.06Z"/><path class="cls-4" d="M363,175.91a5.61,5.61,0,0,0-4.37,10.33,32.67,32.67,0,0,1,20,30.14,5.61,5.61,0,1,0,11.22,0A43.87,43.87,0,0,0,363,175.91Z"/></svg>