<svg id="Calque_1" data-name="Calque 1" xmlns="http://www.w3.org/2000/svg" xmlns:xlink="http://www.w3.org/1999/xlink" viewBox="0 0 500 500"><defs><style>.cls-1{fill:#ffc8c0;}.cls-2{fill:url(#Dégradé_sans_nom_61);}.cls-3{fill:url(#Dégradé_sans_nom_61-2);}</style><linearGradient id="Dégradé_sans_nom_61" x1="64.21" y1="285.32" x2="306.62" y2="285.32" gradientUnits="userSpaceOnUse"><stop offset="0" stop-color="#ff9485"/><stop offset="1" stop-color="#ff5162"/></linearGradient><linearGradient id="Dégradé_sans_nom_61-2" x1="440.88" y1="95.38" x2="298.1" y2="378.4" xlink:href="#Dégradé_sans_nom_61"/></defs><title>v2_icons</title><path class="cls-1" d="M262.54,137.51c.42,15.54-24.9,53.55-63.18,74.47-1.12.61-15-10.67-13.87-14.57a9.69,9.69,0,0,1,1.55-2.34C218.56,147,222,115,228.65,111.57,233.1,109.3,262.33,129.83,262.54,137.51Z"/><path class="cls-1" d="M298.37,218.38c.54,11-34.32,26.38-74.52,25.1-1.18,0-6.94-15.49-4.2-18.06A8.93,8.93,0,0,1,222,224.3c47.53-23.47,47.77-36.57,54.68-36.9C288.36,186.84,298.27,216.48,298.37,218.38Z"/><path class="cls-2" d="M305.66,390.73l-30.59-69.08a18.84,18.84,0,0,0-4-5.76L124.86,169.63l-1.6-1.61-3.86-1.34a41.51,41.51,0,0,0-52.76,53.07l1.29,3.64L215.74,371.21a18.93,18.93,0,0,0,5.9,4l69.5,30.15a11.15,11.15,0,0,0,4.42.92,11.09,11.09,0,0,0,10.1-15.56Zm-31.07-21.44-5.16,5.16-33.12-14.36,23.7-23.7ZM244.5,338l-130-130,10.4-10.4,130,130ZM90.32,190.54a21.34,21.34,0,0,1,22.2-5.35l5.41,5.41L90.48,218.05,85,212.62A21.32,21.32,0,0,1,90.32,190.54ZM97.45,225l10.09-10.09,130,130L227.44,355Z"/><path class="cls-3" d="M331.12,409.58a247.38,247.38,0,0,1-33.19-2.43,4.93,4.93,0,1,1,1.33-9.77c64.2,8.74,92.19-8.83,97-28.18,3.34-13.49-4.72-28-18.36-33-7.4-2.71-17.85-4.48-28.92-6.36-23.53-4-47.85-8.12-51.43-23.41-3-13,9.86-29.14,41.83-52.3,71.51-51.82,68.38-76.38,63.71-84.53-10.24-17.87-55.88-19-93.93-2.31a4.93,4.93,0,0,1-4-9c38.85-17,92.12-18.57,106.45,6.44,9.09,15.87,4.94,45.66-66.48,97.42-35.6,25.8-39.1,37.43-38,42.07,2.08,8.9,25,12.8,43.47,15.93,11.53,2,22.42,3.8,30.66,6.83,18.3,6.7,29.08,26.28,24.54,44.59C403.38,381.38,391.1,409.58,331.12,409.58Z"/></svg>