<svg id="Calque_1" data-name="Calque 1" xmlns="http://www.w3.org/2000/svg" viewBox="0 0 400 400"><defs><style>.cls-1{fill:#f63132;}.cls-2{fill:#ff8976;}</style></defs><title>icons</title><path class="cls-1" d="M319.84,87.41l-2.11-2.11A19,19,0,0,0,292.95,84L152.66,197.73c-28.44-1.43-63,23.6-61.82,66.44.22,7.88.13,10.91-.26,13.19-.06.34-.13.69-.22,1.09-.14.64-1.06,4.35-1.39,5.77A15.35,15.35,0,0,1,86.5,289a46.53,46.53,0,0,1-6.45,7.22l-.49.44c-8.4,8.15-5.2,19.56,5.61,21.82,2.86.8,8.82,1.57,20,2.22,48.78,2.87,89.41-17.5,103-66.69l1.07-3.86,111.89-138A19,19,0,0,0,319.84,87.41ZM162.54,291.63c8.12-13,4.73-25.76-2.61-20.5-11,7.87-28.09,6.24-28.09,6.24l-3.4-17.94s-12.25,4-20.81,6.46q0-1-.05-2.17c-.51-18.69,6.56-31.79,19.09-40.33,9.15-6.24,24.34-8.87,24.34-8.87l39.66,39.65C185,271.06,175.29,283.42,162.54,291.63Zm35.38-54-30.48-30.32,8.51-6.9,28.8,28.8Z"/><path class="cls-2" d="M92.12,199.58a3.6,3.6,0,0,1-6.67-.31c-5-14-11.14-39.7,3.94-53.57C107,129.55,124.51,148.51,121.7,159,117.53,174.7,99.35,184,92.12,199.58Z"/><path class="cls-2" d="M74.86,206.71a1.92,1.92,0,0,1-2.06,2.89c-7.68-1.82-21-6.49-22.79-17.24-2.14-12.51,11.4-14.87,15.3-10.58C71.09,188.17,70,199,74.86,206.71Z"/></svg>