<svg id="Calque_1" data-name="Calque 1" xmlns="http://www.w3.org/2000/svg" viewBox="0 0 400 400"><defs><style>.cls-1{fill:#f63132;}.cls-2{fill:#ff8976;}</style></defs><title>icons</title><path class="cls-1" d="M66.92,279a10.79,10.79,0,0,1-4.07-1.16,9.08,9.08,0,0,1-4.66-7.57V105.6A44,44,0,0,1,101.84,62H241.51a44,44,0,0,1,43.65,43.65v93.11a44,44,0,0,1-43.65,43.65H122.2l-50,35.5A17,17,0,0,1,66.92,279ZM101.84,79.41A26.08,26.08,0,0,0,75.65,105.6V253.42l38.41-27.35a9.39,9.39,0,0,1,5.24-1.75H241.51a26.08,26.08,0,0,0,26.19-26.19V105a26.08,26.08,0,0,0-26.19-26.19l-139.67.58Z"/><path class="cls-1" d="M297.7,121.89H275l-.56,17.36,23.26.1a26.08,26.08,0,0,1,26.19,26.19V313.35L285.48,286a9.39,9.39,0,0,0-5.24-1.75H158a26.08,26.08,0,0,1-26.19-26.19V236.41l-17.46.83v21.41A44,44,0,0,0,158,302.3h119.3l50,35.5a17,17,0,0,0,5.24,1.16,10.79,10.79,0,0,0,4.07-1.16,9.08,9.08,0,0,0,4.66-7.57V165.53A44,44,0,0,0,297.7,121.89Z"/><circle class="cls-2" cx="120.1" cy="156.46" r="14.51"/><circle class="cls-2" cx="171.67" cy="156.46" r="14.51"/><circle class="cls-2" cx="223.24" cy="156.46" r="14.51"/></svg>