<svg id="Calque_1" data-name="Calque 1" xmlns="http://www.w3.org/2000/svg" xmlns:xlink="http://www.w3.org/1999/xlink" viewBox="0 0 500 500"><defs><style>.cls-1{fill:#ffc8c0;}.cls-2{fill:url(#Dégradé_sans_nom_61);}.cls-3{fill:url(#Dégradé_sans_nom_61-2);}.cls-4{fill:url(#Dégradé_sans_nom_61-3);}.cls-5{fill:url(#Dégradé_sans_nom_61-4);}</style><linearGradient id="Dégradé_sans_nom_61" x1="11.71" y1="92.35" x2="311.11" y2="386" gradientUnits="userSpaceOnUse"><stop offset="0" stop-color="#ff9485"/><stop offset="1" stop-color="#ff5162"/></linearGradient><linearGradient id="Dégradé_sans_nom_61-2" x1="32.21" y1="71.45" x2="331.61" y2="365.09" xlink:href="#Dégradé_sans_nom_61"/><linearGradient id="Dégradé_sans_nom_61-3" x1="59.15" y1="43.98" x2="358.55" y2="337.62" xlink:href="#Dégradé_sans_nom_61"/><linearGradient id="Dégradé_sans_nom_61-4" x1="4.52" y1="99.69" x2="303.92" y2="393.33" xlink:href="#Dégradé_sans_nom_61"/></defs><title>v2_icons</title><path class="cls-1" d="M428.15,81.18c-.28,15.31-26.89,51.58-65.5,70.46-1.13.55-14.3-11.17-13-15a9.54,9.54,0,0,1,1.63-2.23c33.17-45.93,38-77.25,44.68-80.31C400.45,52.1,428.29,73.61,428.15,81.18Z"/><path class="cls-1" d="M459.79,162.35c0,10.86-35,24.43-74.45,21.37-1.16-.09-6.14-15.56-3.33-18a8.8,8.8,0,0,1,2.34-1c47.82-21,48.64-33.85,55.46-33.86C451.35,130.87,459.79,160.48,459.79,162.35Z"/><path class="cls-2" d="M363.65,226.23c-10.8-54.6-78.6-96.81-160.41-96.81-89.3,0-162,50.27-162,112.07,0,33.28,20.56,64.1,56.69,85.35v77.61a13.1,13.1,0,0,0,22.19,9.44l56-53.94c24.82,18.17,60.12,29.57,99.3,29.57,6.11,0,12.29-.29,18.41-.85l56.18,54.11a7.26,7.26,0,0,0,12.3-5.23v-69.4c31.18-17.66,49-43.53,49-71.41C411.35,268.54,392.82,243.25,363.65,226.23ZM114.37,310.5c-32.29-17.29-50.81-42.45-50.81-69,0-49.51,62.66-89.79,139.68-89.79S342.92,192,342.92,241.49s-62.66,89.8-139.68,89.8a215.61,215.61,0,0,1-22.47-1.18l-5.16-.54-55.36,53.32V313.65Zm239.8,49.44-2.94,1.57v66.92l-53.34-51.37-2.58.27a190.33,190.33,0,0,1-19.84,1c-35.62,0-67.78-9.83-90.53-25.55,6.09.47,12.22.74,18.3.74,89.3,0,162-50.28,162-112.07,0-.47,0-.92-.05-1.39,21.68,14.69,35.06,34.65,35.06,56.64C400.21,321.24,383.43,344.27,354.17,359.94Z"/><path class="cls-3" d="M196.26,257.11a18,18,0,0,0,9.2,1.5,15.84,15.84,0,0,0,11.61-2.68c6-4.25,7.77-11.59,6.15-18.51a25.14,25.14,0,0,0-11.1-15.06c-6.62-4.15-14.32-3.13-20,2.06C182.19,233.48,183.28,251.36,196.26,257.11Z"/><path class="cls-4" d="M255.32,256c2.71,2.32,6.87,3.17,9.93.87,7.15-5.37,12.39-13.91,9.33-23-3.18-9.49-14.35-13.91-22.86-8.31-8,5.3-12.27,16.43-6.22,24.82A13.28,13.28,0,0,0,255.32,256Z"/><path class="cls-5" d="M134.57,243.79a6.82,6.82,0,0,0,1.32,4.93c5.19,6.79,15,8.83,21.77,3a15,15,0,0,0,.28-22c-6-5.54-16.15-4.45-21.2,1.71a13.17,13.17,0,0,0-2.21,12.24Z"/></svg>