<svg id="Calque_1" data-name="Calque 1" xmlns="http://www.w3.org/2000/svg" xmlns:xlink="http://www.w3.org/1999/xlink" viewBox="0 0 500 500"><defs><style>.cls-1{fill:#ffc8c0;}.cls-2{fill:url(#Dégradé_sans_nom_61);}</style><linearGradient id="Dégradé_sans_nom_61" x1="133.68" y1="184.92" x2="371.82" y2="340.95" gradientUnits="userSpaceOnUse"><stop offset="0" stop-color="#ff9485"/><stop offset="1" stop-color="#ff5162"/></linearGradient></defs><title>v2_icons</title><path class="cls-1" d="M36.71,108.48c2.46,16.83,38.87,51.94,87,65.67,1.41.4,15.32-14.94,13.25-18.87-.48-.91-1.5-1.44-2.23-2.16C89.27,108.56,79.29,74.9,70.92,72.76,65.36,71.33,35.5,100.16,36.71,108.48Z"/><path class="cls-1" d="M10.65,203.78c1.46,12,44.61,20.52,90.77,9.91,1.36-.31,5.08-18.28,1.44-20.41a10.6,10.6,0,0,0-2.9-.68c-59.31-14.35-62.07-28.4-70.11-27.17C16.24,167.52,10.4,201.72,10.65,203.78Z"/><path class="cls-2" d="M485.79,235.09h0c-2.51-11.79-12.45-20.48-29.59-25.9A14.64,14.64,0,0,0,452.09,199a13.5,13.5,0,0,0-16.52-2.64l-16.39,8.76a13.21,13.21,0,0,0-6.81,9.73A14.3,14.3,0,0,0,416.12,227l13.68,14.16a12.78,12.78,0,0,0,14.73,3.11,14.92,14.92,0,0,0,7.21-6.76c4.13,1.67,5.82,3.12,6.39,3.7-1.47,8.08-48,45.37-175.86,72.51-51.72,11-101.05,16.41-138.88,15.3-35.78-1-48.88-7.6-51.29-10.34,1-2.82,8.65-12.87,35.85-26.84a144.14,144.14,0,0,0,6.74,26.95c5.14.24,10.62.36,16.48.34a122.43,122.43,0,0,1-7.6-68.1c0,.11.06.24.07.37,1.73,18.31,10,23.64,20.41,30.38,2.76,1.78,5.76,3.71,9,6.1,9.22,6.86,8.92,13.73,8.52,23.26-.1,2.21-.15,4.51-.14,6.88,16.92-1.16,35.9-3.27,56.81-6.55-5.48-1.12-11-2.35-14.4-5.6-1-1-2-2-3-3-4.39-4.48-8.92-9.12-15.71-11.43-9.37-3.17-16.26-17.5-18.15-26.66-1.71-8.23,2.19-12.69,7.14-18.34a54.65,54.65,0,0,0,7.54-10.11c1.29-2.36,3.05-3.72,5.61-5.52,3-2.13,7.39-2.94,12-3.79,5.85-1.07,11.9-2.2,15.94-6.33a11.49,11.49,0,0,0,3.67-8.73c-.29-7.24-7.63-13.54-13.51-18.59-1.59-1.37-3-2.6-4.09-3.67-2.75-2.79-3.36-4.65-3-5.42.52-1.24,3.82-2.56,8.92-2.56,5.56,0,11.27,1.52,13.91,3.71,3.7,3.07,6.95,4.57,9.92,4.57,6,0,8.92-5.65,11.71-11.11.91-1.77,1.85-3.61,2.91-5.28a50.13,50.13,0,0,1,3.89-5.12c4.77-5.8,10.7-13,1.1-22.51-.34-.34-.87-.76-1.29-1.13a125.69,125.69,0,0,1,66.41,19.54,4.13,4.13,0,0,1-2.42.54,36.88,36.88,0,0,1-8.08-1.5,34.2,34.2,0,0,0-8.67-1.47h-.12c-4.28.26-7.48,1.64-9.52,4.1-3.59,4.28-2.83,10.58-2.11,16.66.57,4.7,1.14,9.54-.58,12.06a43.73,43.73,0,0,0-3.5,6.58,33.37,33.37,0,0,1-3.31,6.19,17.94,17.94,0,0,1-2.77,2.59c-2.32,1.9-4.91,4-5.64,7.38-.82,3.93.39,7,1.35,9.56,1.12,2.9,1.88,4.82.22,7.83a21.49,21.49,0,0,1-4.82,5.41c-3,2.71-6.37,5.77-7.4,11.05-1.81,9.22,0,22.89,6.79,31.21a17.58,17.58,0,0,0,14,6.82c2.21,0,4.44-.21,6.61-.4s4.18-.38,6.21-.38c5.27,0,8.59,1.54,11.21,5,19.7-5.19,38.34-10.94,55.49-17.06a16.1,16.1,0,0,1,2.33-7.67c1-1.6,4.14-6.47,7.27-6.47a4.42,4.42,0,0,1,2.21.67,16,16,0,0,1,4.37,4.46c0,1,.11,1.93.15,2.89q7.78-3.07,15-6.23c-3.79-74.93-65.75-134.76-141.62-134.76-74.78,0-136.19,58.11-141.56,131.53-46.52,21.51-67,42.32-62.47,63.58,4.37,20.61,30,31.28,78.23,32.64q5.11.16,10.46.15l2.57,0a141.59,141.59,0,0,0,112.77,56.07c66.37,0,122.11-45.8,137.58-107.42,5-2,9.77-4.06,14.31-6.1C468.28,278.3,490.33,256.48,485.79,235.09ZM175.2,356.81c8.6-.43,17.55-1.1,26.75-2,.37,1.14.74,2.36,1.11,3.72,1.91,6.92,4.75,12.49,7.76,18.42l2.42,4.89a33.8,33.8,0,0,0,2.53,4.65A127,127,0,0,1,175.2,356.81Zm93.18,41.27A127.66,127.66,0,0,1,242,395.3l-.05-.11a55.36,55.36,0,0,0-4.8-7.18c-3.93-5.25-6.53-8.7-3.67-15.86,1.39-3.47,5.57-8.22,10-13.25,3-3.39,6.14-7,8.91-10.77,11.78-2,23.73-4.23,35.73-6.78,11.14-2.36,22.37-5,33.5-7.93,0,.9,0,1.84.05,2.82.12,8,.26,20.19,9.94,20.19,2.74,0,5.9-1.07,9.69-3.33,5.47-3.21,7.38-8.65,9.07-13.44,1.1-3.11,2.13-6.05,4-8.36l2.18-2.7c2.05-2.53,3.69-4.59,5.13-6.73,9-2.87,17.78-5.85,26.15-8.9C370.6,362.45,323.65,398.09,268.38,398.09ZM285.93,331C237.88,341.18,190.68,346.8,153,346.8q-5.18,0-10.15-.14c-41.48-1.17-65.06-9.56-68.18-24.26-3.07-14.46,14.26-31.26,50.23-48.79,0,2.5.16,5.05.36,7.7-29.55,14.85-45.82,29.56-43.69,39.62,2.27,10.67,25.26,17.66,61.48,18.68,38.65,1.15,88.85-4.36,141.38-15.52,115.72-24.57,188.6-64,184.06-85.34-1.13-5.3-7.69-9.86-19-13.18l-7.17-2.11.39,7.47a4.15,4.15,0,0,1-2.46,3.63,2.33,2.33,0,0,1-2.89-.75l-13.69-14.17a3.77,3.77,0,0,1-.91-3.12,2.68,2.68,0,0,1,1.34-2l16.39-8.76a2.91,2.91,0,0,1,3.85.59c1,1,1.59,2.74.92,3.83l-3.65,6.07,6.86,1.78c16,4.15,25,10.64,26.88,19.28C482.22,269.3,384.42,310.06,285.93,331Z"/></svg>